<?xml version="1.0" encoding="UTF-8"?>
<svg id="Layer_2" data-name="Layer 2" xmlns="http://www.w3.org/2000/svg" viewBox="0 0 286.13 292.87">
  <defs>
    <style>
      .cls-1, .cls-2 {
        stroke-width: 0px;
      }

      .cls-1, .cls-3 {
        fill: #e1e0e1;
      }

      .cls-3 {
        stroke: #000;
        stroke-miterlimit: 10;
        stroke-width: 8px;
      }
    </style>
  </defs>
  <g id="Layer_1-2" data-name="Layer 1">
    <g>
      <g>
        <path class="cls-2" d="m152.61.01c17.1-.34,35.81,6.72,46,21,30.29-7.52,60.7,12.66,62.25,44.25,52.75,40.86,16.59,127.7-50.25,116.25-16.72,27.5-55.09,34.8-81.5,17-38,26.37-96.05,7-104.75-39.75-33.7-27.62-32.51-82.21,4-107C40.9,14.16,84.12-6.07,120.61,11.01,129.5,3.93,141.38.23,152.61.01Z"/>
        <path class="cls-1" d="m149.61,12.51c22.23-1.68,38.42,12.71,38.25,15.75-.03.51-5.16,4.1-4,9,2.28,9.63,12.3-8.54,34.75-5.25,13.76,2.02,27.47,16.24,29.75,29.75,2.27,13.41-3.88,19.37,8.25,16.25,38.09,33.48,7.66,97.68-40,92.5-9.31-1.01-19.3-11.18-17.75,6.25-16.9,23.65-48.54,25.01-70.25,6.75-1.78-.28-6.96,5.4-10.5,7.5-32.92,19.49-79.88-1.6-82.75-40.75-25.49-14.92-29.44-52.06-13.5-75.5,9.56-14.06,13.75-8.62,15.5-10,6.22-33.89,40.97-55.89,74.25-44.75,4.4,1.47,13.63,7.54,14.5,7.5,6.86-.29-1.45-9.06,15-13.5,2.46-.66,5.98-1.31,8.5-1.5Z"/>
      </g>
      <circle class="cls-3" cx="143.1" cy="236.63" r="21.75"/>
      <circle class="cls-3" cx="126.74" cy="278.11" r="10.76"/>
    </g>
  </g>
</svg>